<?xml version="1.0" encoding="UTF-8"?>
<svg id="Laag_1" data-name="Laag 1" xmlns="http://www.w3.org/2000/svg" viewBox="0 0 558.12 558.12">
  <defs>
    <style>
      .cls-1, .cls-2, .cls-3 {
        fill: #2a6a73;
      }

      .cls-1, .cls-4 {
        stroke-width: 0px;
      }

      .cls-2 {
        stroke-width: 10px;
      }

      .cls-2, .cls-5, .cls-3 {
        stroke: #fff;
        stroke-miterlimit: 10;
      }

      .cls-4, .cls-5 {
        fill: none;
      }

      .cls-5 {
        stroke-width: 8.49px;
      }

      .cls-3 {
        stroke-width: 31px;
      }
    </style>
  </defs>
  <g>
    <circle class="cls-1" cx="279.06" cy="279.06" r="279.06"/>
    <circle class="cls-5" cx="282.82" cy="279.36" r="250.72"/>
  </g>
  <g>
    <path class="cls-3" d="M328.63,191.26c-9.19,8.54-10.54,22.64-2.71,32.45,1.45,1.82,3.01,3.58,4.68,5.27,1.67,1.69,3.41,3.27,5.21,4.75,9.71,7.95,23.82,6.78,32.48-2.31,12.15-12.76,29.34-20.67,48.36-20.56.67,0,1.35.02,2.02.04,12.41.45,23.36-8.35,24.82-20.68,2.27-19.3-3.93-39.42-18.65-54.32-14.72-14.9-34.76-21.35-54.09-19.31-12.35,1.3-21.28,12.15-20.98,24.56.02.67.02,1.34.02,2.02-.12,19.02-8.24,36.1-21.15,48.1Z"/>
    <path class="cls-3" d="M482.46,277.48c.13-21.07-9.59-39.89-24.85-52.12-9.58-7.67-23.35-6.33-31.79,2.58-.51.54-1.03,1.07-1.57,1.6-13.52,13.36-31.34,19.7-48.94,19.06-12.55-.46-23.48,8.53-24.88,21.01-.26,2.32-.4,4.67-.42,7.06-.01,2.38.1,4.74.33,7.06,1.25,12.49,12.07,21.61,24.62,21.31,17.61-.42,35.35,6.14,48.7,19.66.53.53,1.04,1.07,1.55,1.62,8.33,9.01,22.08,10.52,31.75,2.97,15.41-12.03,25.36-30.74,25.49-51.81Z"/>
    <path class="cls-3" d="M367.73,322.15c-8.54-9.19-22.64-10.54-32.45-2.71-1.82,1.45-3.58,3.01-5.27,4.68-1.69,1.67-3.27,3.41-4.75,5.21-7.95,9.71-6.78,23.82,2.31,32.48,12.76,12.15,20.67,29.34,20.56,48.36,0,.68-.02,1.35-.04,2.02-.45,12.41,8.35,23.36,20.68,24.82,19.3,2.27,39.42-3.93,54.32-18.65,14.9-14.72,21.35-34.76,19.31-54.09-1.3-12.35-12.15-21.28-24.56-20.98-.67.02-1.34.02-2.02.02-19.02-.12-36.1-8.24-48.1-21.15Z"/>
    <path class="cls-3" d="M310.38,368.83c.46-12.55-8.53-23.48-21.01-24.88-2.32-.26-4.67-.4-7.06-.42-2.38-.01-4.74.1-7.06.33-12.49,1.25-21.61,12.07-21.31,24.62.42,17.61-6.14,35.35-19.66,48.71-.53.53-1.07,1.04-1.62,1.55-9.01,8.33-10.52,22.08-2.97,31.75,12.03,15.41,30.74,25.36,51.81,25.49,21.07.13,39.89-9.59,52.12-24.85,7.67-9.58,6.33-23.35-2.58-31.79-.54-.51-1.07-1.03-1.6-1.57-13.36-13.52-19.7-31.34-19.06-48.94Z"/>
    <path class="cls-3" d="M236.84,361.25c9.19-8.54,10.54-22.64,2.71-32.45-1.45-1.82-3.01-3.58-4.68-5.27-1.67-1.69-3.41-3.27-5.21-4.75-9.71-7.95-23.82-6.78-32.48,2.31-12.15,12.76-29.34,20.67-48.36,20.56-.67,0-1.35-.02-2.02-.04-12.41-.45-23.36,8.35-24.82,20.68-2.27,19.3,3.93,39.42,18.65,54.32,14.72,14.9,34.76,21.35,54.09,19.31,12.35-1.3,21.28-12.15,20.98-24.56-.02-.67-.02-1.34-.02-2.02.12-19.01,8.24-36.1,21.15-48.1Z"/>
    <path class="cls-3" d="M190.16,303.9c12.55.46,23.48-8.53,24.88-21.01.26-2.32.4-4.67.42-7.06.01-2.38-.1-4.74-.33-7.06-1.25-12.49-12.07-21.61-24.62-21.31-17.61.42-35.35-6.14-48.7-19.66-.53-.53-1.04-1.07-1.55-1.62-8.33-9.01-22.08-10.52-31.75-2.97-15.41,12.03-25.36,30.74-25.49,51.81-.13,21.07,9.59,39.89,24.85,52.12,9.58,7.67,23.35,6.33,31.79-2.58.51-.54,1.03-1.07,1.57-1.6,13.52-13.36,31.34-19.7,48.94-19.06Z"/>
    <path class="cls-3" d="M197.74,230.36c8.54,9.19,22.64,10.54,32.45,2.71,1.82-1.45,3.58-3.01,5.27-4.68,1.69-1.67,3.27-3.41,4.75-5.21,7.95-9.71,6.78-23.82-2.31-32.48-12.76-12.15-20.67-29.34-20.56-48.36,0-.67.02-1.35.04-2.02.45-12.41-8.35-23.36-20.68-24.82-19.3-2.27-39.42,3.93-54.32,18.65-14.9,14.72-21.35,34.76-19.31,54.09,1.3,12.35,12.15,21.28,24.56,20.98.67-.02,1.34-.02,2.02-.02,19.02.12,36.1,8.24,48.1,21.15Z"/>
    <path class="cls-3" d="M255.09,183.68c-.46,12.55,8.53,23.48,21.01,24.88,2.32.26,4.67.4,7.06.42,2.38.01,4.74-.1,7.06-.33,12.49-1.25,21.61-12.07,21.31-24.62-.42-17.61,6.14-35.35,19.66-48.7.53-.53,1.07-1.04,1.62-1.55,9.01-8.33,10.52-22.08,2.97-31.75-12.03-15.41-30.74-25.36-51.81-25.49-21.07-.13-39.89,9.59-52.12,24.85-7.67,9.58-6.33,23.35,2.58,31.79.54.51,1.07,1.03,1.6,1.57,13.36,13.52,19.7,31.34,19.06,48.94Z"/>
  </g>
  <path class="cls-4" d="M537.52,315.84c-7.28,9.71-14.56,19.41-21.84,29.12"/>
  <circle class="cls-2" cx="284.51" cy="273.51" r="58.5"/>
</svg>